<svg xmlns="http://www.w3.org/2000/svg"  viewBox="0 0 512 512" width="64px" height="64px"><path fill="#E04F5F" d="M504.1,256C504.1,119,393,7.9,256,7.9C119,7.9,7.9,119,7.9,256C7.9,393,119,504.1,256,504.1C393,504.1,504.1,393,504.1,256z"/><path fill="#FFF" d="M400.5 234H175c-5.5 0-10 4.5-10 10v24c0 5.5 4.5 10 10 10h225.5c5.5 0 10-4.5 10-10v-24C410.5 238.5 406 234 400.5 234zM135.5 234h-24c-5.5 0-10 4.5-10 10v24c0 5.5 4.5 10 10 10h24c5.5 0 10-4.5 10-10v-24C145.5 238.5 141 234 135.5 234zM400.5 165H175c-5.5 0-10 4.5-10 10v24c0 5.5 4.5 10 10 10h225.5c5.5 0 10-4.5 10-10v-24C410.5 169.5 406 165 400.5 165zM135.5 165h-24c-5.5 0-10 4.5-10 10v24c0 5.5 4.5 10 10 10h24c5.5 0 10-4.5 10-10v-24C145.5 169.5 141 165 135.5 165z"/><g><path fill="#FFF" d="M400.5 303H175c-5.5 0-10 4.5-10 10v24c0 5.5 4.5 10 10 10h225.5c5.5 0 10-4.5 10-10v-24C410.5 307.5 406 303 400.5 303zM135.5 303h-24c-5.5 0-10 4.5-10 10v24c0 5.5 4.5 10 10 10h24c5.5 0 10-4.5 10-10v-24C145.5 307.5 141 303 135.5 303z"/></g></svg>